<svg xmlns="http://www.w3.org/2000/svg" xmlns:xlink="http://www.w3.org/1999/xlink" version="1.1" x="0px" y="0px" viewBox="0 0 100 100" enable-background="new 0 0 100 100" xml:space="preserve"><g><g><g><g><path d="M75.036,52.356c4.69,1.377,3.886,4.781,3.872,7.063h-11.7c-0.421-1.381-1.46-2.671-3.942-3.396l-0.785-0.235      c-3.284-0.955-5.042-1.471-5.502-2.506c-0.112-0.373-0.078-0.787,1.017-1.185c3.519-1.024,5.302-1.56,5.723-2.878h0.222      c-0.06-0.053-0.118-0.105-0.173-0.168c-1.739-1.677-3.067-4.949-3.067-7.591c0-3.736,2.86-6.191,5.566-6.191      c2.705,0,5.427,2.652,5.427,6.393c0,2.642-1.478,5.811-3.293,7.432C68.775,50.619,70.815,51.118,75.036,52.356z"></path></g><g><g><path d="M66.957,68.003H30.61c-0.022-0.364-0.045-0.728-0.089-1.157c-0.112-1.436-0.224-2.914,0.178-4.265       c0.491-1.585,1.764-2.978,4.71-3.836l1.139-0.364c5.179-1.479,7.948-2.314,8.863-4.265l0.291-0.491l-0.022-0.622       c-0.067-0.043-0.111-0.085-0.201-0.193c-0.313-0.321-0.625-0.643-0.916-1.027c-2.009-2.552-3.438-6.494-3.438-9.75       c0-4.159,3.082-8.573,7.68-8.573c3.595,0,7.458,3.558,7.458,8.872c0,3.387-1.764,7.585-4.175,10.05       c-0.157,0.173-0.335,0.321-0.491,0.472l-0.29,0.258l0.089,0.387c0.625,2.441,3.438,3.277,9.086,4.884l1.161,0.364       c2.925,0.858,4.309,2.273,4.912,3.836h0.022c0.559,1.521,0.491,3.173,0.424,4.715C66.979,67.531,66.979,67.788,66.957,68.003z"></path></g></g><g><path d="M22.434,52.356c-4.694,1.377-3.884,4.781-3.872,7.063h11.696c0.424-1.381,1.459-2.671,3.946-3.396l0.782-0.235      c3.287-0.955,5.046-1.471,5.503-2.506c-0.125-0.411,0.102-1.027-1.019-1.185c-3.517-1.024-5.3-1.56-5.72-2.878h-0.22      c0.059-0.053,0.119-0.105,0.172-0.168c1.739-1.677,3.068-4.949,3.068-7.591c0-3.736-2.859-6.191-5.566-6.191      c-2.708,0-5.427,2.652-5.427,6.393c0,2.642,1.472,5.811,3.287,7.432C28.692,50.619,26.649,51.118,22.434,52.356z"></path></g></g></g></g></svg>